<?xml version="1.0" standalone="no"?>
<!DOCTYPE svg PUBLIC "-//W3C//DTD SVG 20010904//EN"
 "http://www.w3.org/TR/2001/REC-SVG-20010904/DTD/svg10.dtd">
<svg version="1.0" xmlns="http://www.w3.org/2000/svg"
 width="1060.000000pt" height="1060.000000pt" viewBox="0 0 1060.000000 1060.000000"
 preserveAspectRatio="xMidYMid meet">
<metadata>
Created by potrace 1.11, written by Peter Selinger 2001-2013
</metadata>
<g transform="translate(0.000000,1060.000000) scale(0.100000,-0.100000)"
fill="#000000" stroke="none">
<path d="M10357 8018 c-63 -13 -91 -33 -204 -144 -97 -95 -798 -785 -1183
-1164 -313 -308 -1109 -1091 -1229 -1209 -69 -68 -170 -166 -223 -219 l-98
-96 -257 256 c-283 281 -292 287 -396 275 -135 -16 -220 -174 -158 -295 10
-20 130 -148 265 -284 l246 -246 -228 -225 c-125 -124 -297 -294 -384 -379
-298 -292 -1081 -1063 -1159 -1142 -61 -61 -82 -76 -92 -68 -17 15 -1025 1017
-3084 3068 -912 909 -1699 1693 -1750 1743 -100 100 -137 121 -210 121 -146
-1 -242 -138 -195 -278 16 -49 -210 178 4733 -4744 213 -213 402 -394 419
-403 17 -9 53 -19 79 -22 87 -10 114 10 403 295 145 143 331 326 413 407 83
81 357 351 610 600 672 662 737 725 742 725 3 0 115 -110 250 -244 196 -196
253 -248 287 -259 141 -48 279 51 278 199 0 51 -28 124 -54 141 -7 5 -114 111
-238 236 l-225 227 177 172 c97 95 387 381 645 634 257 254 548 540 645 635
1499 1473 1393 1367 1407 1424 24 102 -15 197 -100 240 -48 26 -88 33 -132 23z"/>
</g>
</svg>
