<svg id="Слой_1" data-name="Слой 1" xmlns="http://www.w3.org/2000/svg" viewBox="0 0 807.72 780.47"><defs><style>.cls-1,.cls-2{fill:none;stroke:#c20005;stroke-linecap:round;stroke-width:20px;}.cls-1{stroke-miterlimit:10;}.cls-2{stroke-linejoin:round;}.cls-3{isolation:isolate;}.cls-4{fill:#fff;}</style></defs><line class="cls-1" x1="230.29" y1="10" x2="374.29" y2="154"/><line class="cls-2" x1="518.07" y1="10" x2="374.29" y2="154"/><line class="cls-1" x1="401.29" y1="82" x2="446.29" y2="127"/><g class="cls-3"><path class="cls-4" d="M208.27,284h27.34v72.66h52q22.65,0,36.52,13.47T338,405.49v316q0,23.06-15.63,41.8t-38.67,18.75H235.61v76.17H208.27V782.05H160.61q-23.06,0-38.86-18.95t-15.82-41.6v-316q0-21.89,13.86-35.36t36.53-13.47h52Zm0,474.22V380.49H167.64q-15.22,0-24.6,7.22t-9.77,21.68V721.5q0,14.85,11.33,25.78a37.42,37.42,0,0,0,27,10.94Zm27.34-377.73V758.22h36.72a38.12,38.12,0,0,0,27.15-10.94Q311,736.36,311,721.5V409.39q-.39-14.44-9.76-21.68t-24.61-7.22Z" transform="translate(-105.93 -84)"/><path class="cls-4" d="M455.5,284h45.71l57.42,574.22H529.72L480.11,344.55q-.78-7-.78-30.47h-5.47a264.67,264.67,0,0,1-2.34,30.47l-48,513.67H396.91Z" transform="translate(-105.93 -84)"/><path class="cls-4" d="M635.75,294q18.16-16.59,45.11-16.6T726,294q18.16,16.6,18.16,42.78V805.49q0,25.77-18.16,42.38t-45.12,16.6q-27,0-45.11-16.6t-18.17-42.38V706.27h27.35v97.65q0,17.21,10.35,27t25.58,9.76q15.63,0,25.78-9.76t10.16-27V576.58H644.93V552.75H716.8V338.3q0-18.36-10.55-27.54t-25.39-9.18a37.8,37.8,0,0,0-25,9.18q-10.93,9.18-10.93,27.54v91.79H617.58V336.74Q617.58,310.57,635.75,294Z" transform="translate(-105.93 -84)"/><path class="cls-4" d="M803.1,284H913.64v23.83H871.85V858.22h-27V307.83H803.1Z" transform="translate(-105.93 -84)"/></g></svg>